<?xml version="1.0" standalone="no"?>
<!DOCTYPE svg PUBLIC "-//W3C//DTD SVG 20010904//EN"
 "http://www.w3.org/TR/2001/REC-SVG-20010904/DTD/svg10.dtd">
<svg version="1.0" xmlns="http://www.w3.org/2000/svg"
 width="150.000000pt" height="150.000000pt" viewBox="0 0 150.000000 150.000000"
 preserveAspectRatio="xMidYMid meet">
<metadata>
Created by potrace 1.14, written by Peter Selinger 2001-2017
</metadata>
<g transform="translate(0.000000,150.000000) scale(0.100000,-0.100000)"
fill="#000000" stroke="none">
<path d="M300 745 l0 -545 100 0 100 0 0 373 c1 368 1 372 20 349 10 -13 128
-180 261 -373 l242 -349 88 0 89 0 0 545 0 545 -100 0 -100 0 0 -372 c0 -319
-2 -370 -14 -358 -8 8 -125 176 -261 373 l-246 357 -90 0 -89 0 0 -545z"/>
</g>
</svg>
